<svg xmlns="http://www.w3.org/2000/svg" width="2916" height="1152"><g xmlns="http://www.w3.org/2000/svg" fill="#fddc37"><path d="M585 180c-90.835 0-174.687 29.904-242.245 80.405h484.49C759.687 209.905 675.836 180 585 180zM833.037 264.824H336.965a407.229 407.229 0 00-42.05 37.558h580.172a407.36 407.36 0 00-42.05-37.558zM881.403 309.008H288.597a406.882 406.882 0 00-29.373 35.347h651.554a407.102 407.102 0 00-29.375-35.347zM917.136 353.193h-664.27A404.976 404.976 0 00232 386.33h706a405.989 405.989 0 00-20.865-33.138zM944.007 397.378H225.994a403.139 403.139 0 00-14.562 30.93H958.57a403.58 403.58 0 00-14.563-30.93zM963.863 441.563H206.137a401.289 401.289 0 00-9.655 28.72H973.52a402.06 402.06 0 00-9.656-28.72zM977.741 485.748H192.26a402.415 402.415 0 00-5.738 26.51h796.96a402.42 402.42 0 00-5.74-26.51zM986.28 529.933H183.72a406.193 406.193 0 00-2.567 24.3h807.694a406.292 406.292 0 00-2.566-24.3zM990 585c0-3.64-.05-7.266-.146-10.882H180.146A414.9 414.9 0 00180 585c0 3.749.055 7.486.157 11.21h809.686c.102-3.724.157-7.461.157-11.21zM988.642 618.302H181.358a406.044 406.044 0 002.11 19.884H986.53a404.644 404.644 0 002.111-19.884zM982.591 662.487h-795.18a403.036 403.036 0 003.838 17.675h787.503a403.036 403.036 0 003.84-17.675zM971.399 706.672H198.602a403.226 403.226 0 005.215 15.465h762.369a405.203 405.203 0 005.213-15.465zM954.586 750.857H215.415a404.253 404.253 0 006.25 13.256h726.67a401.932 401.932 0 006.251-13.256zM931.345 795.042h-692.69a402.372 402.372 0 006.967 11.046h678.757a405.107 405.107 0 006.966-11.046zM900.281 839.227H269.72a402.274 402.274 0 007.35 8.837h615.865a411.527 411.527 0 007.347-8.837zM858.809 883.412H311.19c2.44 2.239 4.905 4.448 7.399 6.628H851.41c2.493-2.18 4.96-4.39 7.398-6.628zM801.076 927.597H368.924c2.367 1.496 4.75 2.97 7.152 4.419h417.85c2.4-1.45 4.783-2.923 7.15-4.42zM705.468 971.78H464.532c2.448.762 4.909 1.495 7.375 2.21h226.186a391.456 391.456 0 007.375-2.21z"/></g><path d="M1263.787 419.291h120.346A30.64 30.64 0 011414.84 450c0 16.6-13.694 30.294-30.708 30.294h-120.761c-17.845 0-32.37 14.524-32.37 32.784 0 17.844 14.525 32.369 32.37 32.369h82.997c51.873 0 93.787 41.913 93.787 93.786 0 7.055-5.81 12.45-12.45 12.45-7.055 0-12.865-5.395-12.865-12.45 0-37.763-30.708-68.472-68.472-68.472h-82.997c-31.954 0-57.683-25.73-57.683-57.683s25.729-58.098 57.683-58.098h120.76c2.905 0 5.395-2.075 5.395-4.98s-2.49-5.395-5.394-5.395h-120.346c-37.764 0-68.473 30.71-68.473 68.473 0 7.055-5.81 12.45-12.864 12.45-6.64 0-12.45-5.395-12.45-12.45 0-51.873 41.914-93.787 93.787-93.787zm0 162.26h82.997c31.954 0 57.683 26.143 57.683 58.097s-25.73 57.683-57.683 57.683h-132.796c-2.904 0-5.394 2.49-5.394 5.395s2.49 4.98 5.394 4.98h132.38c7.056 0 12.45 5.81 12.45 12.865 0 6.64-5.394 12.45-12.45 12.45h-132.38c-17.014 0-30.708-13.695-30.708-30.295s12.864-30.709 29.464-30.709h134.04c17.844 0 32.369-14.524 32.369-32.369 0-18.259-14.525-32.783-32.37-32.783h-82.996c-7.055 0-12.45-5.81-12.45-12.45 0-7.055 5.395-12.865 12.45-12.865zm353.152-131.136c33.614 0 65.153 12.865 88.807 36.519 23.655 24.069 36.52 55.608 36.52 89.222 0 6.64-5.396 12.45-12.45 12.45-6.64 0-12.45-5.81-12.45-12.45 0-26.974-10.375-52.289-29.464-71.378-19.09-18.674-44.403-29.464-70.963-29.464-26.974 0-52.288 10.79-71.377 29.464-19.09 19.09-29.464 44.404-29.464 71.378 0 16.599-13.695 30.709-30.709 30.709s-30.709-14.11-30.709-30.71c0-43.573 17.015-84.241 47.308-114.535 63.493-63.493 165.995-63.493 229.487 0 30.71 30.294 47.309 70.962 47.309 114.536 0 43.158-16.6 83.827-47.309 114.536S1660.098 738 1616.94 738c-7.054 0-12.864-5.395-12.864-12.45s5.81-12.45 12.864-12.45c36.52 0 70.963-14.524 96.692-40.253s40.254-60.173 40.254-96.691-14.525-70.963-40.254-97.107c-53.533-53.118-140.265-53.118-193.798 0-25.73 26.144-39.839 60.588-39.839 97.107 0 3.734 2.075 6.224 5.81 6.224 3.32 0 5.395-2.075 5.395-6.224 0-33.614 12.864-65.153 36.519-89.222 23.654-23.654 55.608-36.519 89.221-36.519z" fill="#3256f8"/><path d="M1824.49 738c-2.061 0-4.122-1.03-5.152-3.09-1.545-1.546-1.545-4.122-1.03-6.182l120.02-308.547c1.03-2.575 3.605-4.12 6.18-4.12h69.024c2.576 0 5.151 1.545 6.181 4.12l117.96 308.547c.514 2.06.514 4.12-1.031 6.181-1.03 2.06-3.09 3.09-5.151 3.09h-71.6c-2.575 0-5.15-1.544-6.18-4.12l-19.06-47.39-115.898.516-19.059 46.874c-1.03 2.576-3.605 4.12-6.18 4.12h-69.025zm115.382-115.898h74.175L1976.96 512.9zM2191.242 738c-4.12 0-6.696-3.09-6.696-6.696V422.757c0-3.606 2.576-6.697 6.697-6.697h125.685c39.148 0 70.054 9.787 91.688 29.876 31.937 28.846 42.754 83.447 27.3 123.625-5.665 14.423-15.452 27.816-27.815 37.603-7.211 5.666-14.938 9.787-22.664 13.907 22.15 35.028 55.63 106.112 55.63 106.112.516 1.03 1.546 2.575 1.546 4.12 0 3.606-3.09 6.697-6.696 6.697h-76.235c-2.06 0-4.636-1.545-5.667-3.606l-44.814-98.385c-15.968 1.03-28.33.516-44.814.516v94.779c0 3.605-3.09 6.696-6.696 6.696h-66.448zm73.145-173.075s64.904 7.212 87.568-7.726c8.757-5.666 13.908-19.574 13.908-29.876-.515-11.333-6.181-23.18-15.453-30.391-9.787-8.242-33.997-10.818-46.36-10.818l-39.663 1.03v77.781zM2494.64 738V429.453c0-12.877 2.575-15.453 6.696-15.453h225.615c3.606 0 6.697 2.576 6.697 6.181v58.207c0 3.606-3.091 6.696-6.697 6.696h-152.47v53.571h96.324c3.606 0 6.696 3.09 6.696 6.696v57.692c0 3.606-3.09 6.696-6.696 6.696h-96.324v55.116h151.955c3.606 0 6.696 3.09 6.696 6.697v57.691c0 3.606-3.09 6.697-6.696 6.697h-225.1c-4.12 0-6.696-3.091-6.696 2.06z" fill="#f725b1"/></svg>